<svg width="35" height="33" viewBox="0 0 35 33" fill="none" xmlns="http://www.w3.org/2000/svg">
<path d="M11.3003 13.2584L6.1089 10.2402L0.910645 13.2584V19.2809L6.1089 22.2922L11.3003 19.2809V13.2584ZM10.1824 18.6332L6.1089 20.9898L2.03534 18.6332V13.9061L6.1089 11.5426L10.1824 13.9061V18.6332Z" fill="#64748B"/>
<path d="M22.5206 13.2515L17.5303 10.2402L12.5466 13.2515V19.274L17.5303 22.2922L22.5206 19.274V13.2515Z" fill="#64748B"/>
<path d="M28.9599 10.2402L23.7685 13.2584V19.2809L28.9599 22.2922L34.1581 19.2809V13.2584L28.9599 10.2402ZM33.0335 18.6332L28.9599 20.9898L24.8863 18.6332V13.9061L28.9599 11.5426L33.0335 13.9061V18.6332Z" fill="#64748B"/>
<path d="M6.72961 23.2324V29.2549L11.9347 32.2662L17.1192 29.2549V23.2324L11.9347 20.2142L6.72961 23.2324ZM15.9823 28.6279L11.9347 30.9638L7.82543 28.6279V23.8801L11.9347 21.5166L15.996 23.8801L15.9823 28.6279Z" fill="#64748B"/>
<path d="M17.9495 23.2324V29.2549L23.1409 32.2662L28.3391 29.2549V23.2324L23.1409 20.2142L17.9495 23.2324ZM27.2144 28.6279L23.1409 30.9845L19.0742 28.6279V23.8801L23.1409 21.5166L27.2144 23.8801V28.6279Z" fill="#64748B"/>
<path d="M17.1192 9.30685V3.26366L11.9416 0.266174L6.72961 3.26366V9.28619L11.9416 12.3181L17.1192 9.30685ZM7.82688 3.95274L11.9416 1.56853L15.9946 3.95274V8.67981L11.9416 11.0158L7.82688 8.65911V3.95274Z" fill="#64748B"/>
<path d="M28.3391 9.32754V3.28432L23.1409 0.266174L17.9495 3.28432V9.30685L23.1409 12.3181L28.3391 9.32754ZM19.0742 3.9734L23.1409 1.60988L27.2144 3.9734V8.70046L23.1409 11.0571L19.0742 8.70046V3.9734Z" fill="#64748B"/>
</svg>
