<svg width="30" height="33" viewBox="0 0 30 33" fill="none" xmlns="http://www.w3.org/2000/svg">
<path d="M14.6358 22.0522C13.7585 22.0562 12.8928 21.8436 12.1097 21.4321C11.3266 21.0206 10.6484 20.4218 10.1308 19.6849L6.52313 21.8405C6.66042 22.0052 6.82294 22.145 7.00417 22.2543L13.424 26.1037C13.7992 26.3031 14.2145 26.407 14.6358 26.407C15.0571 26.407 15.4724 26.3031 15.8476 26.1037L22.2674 22.2543C22.4487 22.145 22.6112 22.0052 22.7485 21.8405L19.1501 19.6464C18.6355 20.3918 17.9576 20.9988 17.1726 21.4172C16.3875 21.8355 15.5179 22.0533 14.6358 22.0522Z" fill="#64748B"/>
<path d="M8.98639 16.2431C8.98968 14.8746 9.5216 13.5551 10.4805 12.537C11.4394 11.519 12.758 10.8736 14.1842 10.7243V6.57599C13.9678 6.6189 13.7597 6.69335 13.567 6.79674L6.87448 10.476C6.51072 10.7081 6.20825 11.0174 5.99079 11.3796C5.77328 11.7419 5.64667 12.1472 5.62085 12.5639V19.9223C5.62382 20.1347 5.65952 20.3455 5.7269 20.5478L9.48789 18.4783C9.15901 17.7748 8.9882 17.0134 8.98639 16.2431Z" fill="#64748B"/>
<path d="M22.4622 10.4734L16.1218 6.79661C15.9394 6.69326 15.7422 6.61885 15.5371 6.57599V10.7124C16.3985 10.8106 17.2249 11.1108 17.9498 11.5891C18.6747 12.0674 19.2779 12.7102 19.7108 13.4659C20.1436 14.2215 20.394 15.0689 20.4419 15.9397C20.4897 16.8106 20.3337 17.6805 19.9863 18.4796L23.5494 20.5478C23.6132 20.3455 23.647 20.1349 23.6498 19.9228V12.5692C23.6267 12.1512 23.5074 11.7443 23.3013 11.3805C23.0952 11.0168 22.8079 10.7063 22.4622 10.4734Z" fill="#64748B"/>
<path d="M27.0796 6.78836L16.6129 0.735041C15.9991 0.426714 15.3218 0.266174 14.635 0.266174C13.9482 0.266174 13.271 0.426714 12.6571 0.735041L2.1903 6.78836C1.61579 7.16317 1.13746 7.668 0.793842 8.26207C0.45027 8.85614 0.251103 9.52278 0.212433 10.2081V22.3147C0.250382 23.0015 0.449188 23.6698 0.79276 24.2655C1.13633 24.8612 1.61507 25.3677 2.1903 25.744L12.6571 31.7974C13.271 32.1057 13.9482 32.2662 14.635 32.2662C15.3218 32.2662 15.9991 32.1057 16.6129 31.7974L27.0796 25.744C27.6549 25.3677 28.1336 24.8612 28.4772 24.2655C28.8207 23.6698 29.0196 23.0015 29.0575 22.3147V10.2081C29.0188 9.52278 28.8197 8.85614 28.4761 8.26207C28.1325 7.668 27.6541 7.16317 27.0796 6.78836ZM25.7358 20.9222C25.705 21.4498 25.5512 21.9628 25.2866 22.4202C25.022 22.8776 24.654 23.2664 24.2121 23.5557L16.1491 28.2165C15.6781 28.4546 15.1579 28.5786 14.6302 28.5786C14.1026 28.5786 13.5823 28.4546 13.1114 28.2165L5.05782 23.5557C4.6159 23.2664 4.2479 22.8776 3.98334 22.4202C3.71873 21.9628 3.56491 21.4498 3.53417 20.9222V11.6102C3.56491 11.0825 3.71873 10.5695 3.98334 10.1122C4.2479 9.65479 4.6159 9.26588 5.05782 8.97662L13.1019 4.31589C13.5728 4.07778 14.0931 3.9537 14.6208 3.9537C15.1484 3.9537 15.6687 4.07778 16.1397 4.31589L24.2027 8.97662C24.6463 9.26484 25.0162 9.65331 25.2824 10.1107C25.5487 10.5681 25.704 11.0817 25.7358 11.6102V20.9222Z" fill="#64748B"/>
<path d="M10.5799 16.2662C10.5799 17.0238 10.8177 17.7645 11.2634 18.3945C11.7091 19.0246 12.3427 19.5156 13.0839 19.8055C13.8251 20.0955 14.6407 20.1713 15.4276 20.0236C16.2144 19.8757 16.9372 19.5109 17.5044 18.9751C18.0717 18.4393 18.4581 17.7567 18.6146 17.0136C18.7711 16.2704 18.6908 15.5001 18.3838 14.8001C18.0767 14.1001 17.5569 13.5018 16.8898 13.0808C16.2228 12.6599 15.4385 12.4352 14.6362 12.4352C13.5604 12.4352 12.5287 12.8388 11.768 13.5573C11.0072 14.2757 10.5799 15.2501 10.5799 16.2662Z" fill="#64748B"/>
</svg>
