<svg width="28" height="33" viewBox="0 0 28 33" fill="none" xmlns="http://www.w3.org/2000/svg">
<path d="M13.9785 3.37766L19.2959 6.44829L21.9921 4.89595L13.9785 0.266174L0.592987 8.00063L3.27553 9.55296L13.9785 3.37766Z" fill="#64748B"/>
<path d="M24.6766 6.4483L13.9805 12.6236L8.66305 9.55298L5.97369 11.1053L13.9805 15.7283L27.3728 8.00064L24.6766 6.4483Z" fill="#64748B"/>
<path d="M2.74612 16.8381L0.0567627 15.2858V24.5317L13.4423 32.2662V29.1615L2.74612 22.9794V16.8381Z" fill="#64748B"/>
<path d="M0.0567627 12.181L10.7529 18.3563V24.4975L13.4423 26.0567V16.8039L0.0567627 9.07629V12.181Z" fill="#64748B"/>
<path d="M22.5325 15.2857V12.181L14.5189 16.804V32.2661L17.2083 30.7138V18.3563L22.5325 15.2857Z" fill="#64748B"/>
<path d="M25.2145 10.6286V22.9792L19.897 26.0567V29.1614L27.9106 24.5316V9.07629L25.2145 10.6286Z" fill="#64748B"/>
</svg>
