<svg width="33" height="33" viewBox="0 0 33 33" fill="none" xmlns="http://www.w3.org/2000/svg">
<path d="M5.025 6.33337L0.0574951 11.3009L5.025 16.2684L9.9925 11.3009L5.025 6.33337Z" fill="#64748B"/>
<path d="M10.0009 11.2987L5.03155 6.32928C6.34845 7.64666 7.08825 9.43315 7.08825 11.2959C7.08825 13.1586 6.34845 14.9451 5.03155 16.2625L0.0621338 21.2263L5.03155 26.1957L10.0009 21.2263L14.9703 16.2625L10.0009 11.2987Z" fill="#CBD5E1"/>
<path d="M27.0848 26.2065L32.0522 21.239L27.0848 16.2715L22.1173 21.239L27.0848 26.2065Z" fill="#64748B"/>
<path d="M22.1179 21.2374L27.0873 26.2013C25.7704 24.8839 25.0306 23.0974 25.0306 21.2347C25.0306 19.3719 25.7704 17.5855 27.0873 16.2681L32.0568 11.2987L27.0873 6.32928L22.1179 11.2987L17.1541 16.2681L22.1179 21.2374Z" fill="#CBD5E1"/>
<path d="M6.12418 27.2987L11.0917 32.2662L16.0592 27.2987L11.0917 22.3311L6.12418 27.2987Z" fill="#64748B"/>
<path d="M11.092 22.3237L6.12262 27.2931C7.44 25.9762 9.22644 25.2364 11.0892 25.2364C12.9519 25.2364 14.7384 25.9762 16.0558 27.2931L21.0197 32.2626L25.989 27.2931L21.0197 22.3237L16.0558 17.3599L11.092 22.3237Z" fill="#CBD5E1"/>
<path d="M25.9981 5.23371L21.0305 0.266174L16.063 5.23367L21.0305 10.2012L25.9981 5.23371Z" fill="#64748B"/>
<path d="M21.0307 10.2067L25.9946 5.23736C24.6772 6.55426 22.8907 7.29406 21.028 7.29406C19.1652 7.29406 17.3788 6.55426 16.0614 5.23736L11.092 0.267944L6.12262 5.23736L11.092 10.2067L16.0614 15.1761L21.0307 10.2067Z" fill="#CBD5E1"/>
</svg>
