<svg width="24" height="25" viewBox="0 0 24 25" fill="none" xmlns="http://www.w3.org/2000/svg">
<rect x="1" y="1.5" width="22" height="22" rx="11" stroke="#E2E8F0" stroke-width="2"/>
<path d="M11.9098 15.516L11.5858 18.603C11.572 18.7336 11.5326 18.8602 11.4699 18.9756C11.4072 19.091 11.3224 19.1929 11.2203 19.2755C11.1182 19.3581 11.0008 19.4197 10.8749 19.457C10.7489 19.4942 10.6169 19.5063 10.4863 19.4925C10.3557 19.4787 10.2291 19.4393 10.1137 19.3766C9.99833 19.3139 9.89643 19.2291 9.81384 19.127C9.73124 19.0249 9.66956 18.9075 9.63232 18.7816C9.59508 18.6556 9.58301 18.5236 9.5968 18.393L10.3198 11.51H7.0098C6.74419 11.51 6.48945 11.4045 6.30163 11.2167C6.11382 11.0289 6.0083 10.7741 6.0083 10.5085C6.0083 10.2429 6.11382 9.98815 6.30163 9.80033C6.48945 9.61251 6.74419 9.507 7.0098 9.507H17.0098C17.2754 9.507 17.5302 9.61251 17.718 9.80033C17.9058 9.98815 18.0113 10.2429 18.0113 10.5085C18.0113 10.7741 17.9058 11.0289 17.718 11.2167C17.5302 11.4045 17.2754 11.51 17.0098 11.51H13.6998L14.4228 18.395C14.4411 18.5279 14.4326 18.6632 14.3976 18.7927C14.3626 18.9223 14.3019 19.0435 14.2192 19.1491C14.1364 19.2548 14.0333 19.3427 13.9159 19.4076C13.7985 19.4726 13.6692 19.5133 13.5357 19.5273C13.4023 19.5414 13.2674 19.5284 13.139 19.4892C13.0107 19.4501 12.8915 19.3855 12.7886 19.2994C12.6857 19.2132 12.6012 19.1073 12.5401 18.9878C12.479 18.8684 12.4425 18.7378 12.4328 18.604L12.1098 15.516H11.9098ZM12.0098 9.506C10.9048 9.506 10.0098 8.609 10.0098 7.503C10.0098 6.397 10.9048 5.5 12.0098 5.5C13.1148 5.5 14.0098 6.397 14.0098 7.503C14.0101 8.03379 13.7995 8.54296 13.4245 8.91857C13.0494 9.29417 12.5406 9.50547 12.0098 9.506Z" fill="#E2E8F0"/>
</svg>
