<svg width="14" height="10" viewBox="0 0 14 10" fill="none" xmlns="http://www.w3.org/2000/svg">
<path d="M5.486 9.74613C5.35474 9.7464 5.22471 9.72074 5.10339 9.67063C4.98206 9.62052 4.87182 9.54695 4.779 9.45413L0.537003 5.21113C0.44143 5.11895 0.365172 5.00866 0.312678 4.88669C0.260185 4.76473 0.232507 4.63353 0.231261 4.50075C0.230014 4.36797 0.255223 4.23628 0.305417 4.11335C0.355611 3.99042 0.429784 3.87871 0.52361 3.78475C0.617435 3.6908 0.729033 3.61646 0.851893 3.5661C0.974752 3.51573 1.10641 3.49033 1.23919 3.49139C1.37197 3.49245 1.50321 3.51994 1.62525 3.57226C1.74729 3.62458 1.85769 3.70069 1.95 3.79613L5.485 7.33113L11.85 0.968129C12.0375 0.780489 12.2919 0.675021 12.5571 0.674927C12.8224 0.674833 13.0769 0.780121 13.2645 0.967629C13.4521 1.15514 13.5576 1.40951 13.5577 1.67478C13.5578 1.94005 13.4525 2.19449 13.265 2.38213L6.193 9.45413C6.10018 9.54695 5.98995 9.62052 5.86862 9.67063C5.7473 9.72074 5.61727 9.7464 5.486 9.74613Z" fill="#0F172A"/>
</svg>
