<svg width="24" height="24" viewBox="0 0 24 24" fill="none" xmlns="http://www.w3.org/2000/svg">
<path d="M12.0711 13.314L17.0211 8.364C17.1133 8.26849 17.2237 8.19231 17.3457 8.1399C17.4677 8.08749 17.5989 8.0599 17.7317 8.05875C17.8645 8.0576 17.9961 8.0829 18.119 8.13318C18.2419 8.18346 18.3536 8.25771 18.4475 8.35161C18.5414 8.4455 18.6156 8.55715 18.6659 8.68005C18.7162 8.80294 18.7415 8.93462 18.7403 9.0674C18.7392 9.20018 18.7116 9.3314 18.6592 9.4534C18.6068 9.57541 18.5306 9.68575 18.4351 9.778L12.7781 15.435C12.5906 15.6225 12.3362 15.7278 12.0711 15.7278C11.8059 15.7278 11.5516 15.6225 11.3641 15.435L5.70708 9.778C5.61157 9.68575 5.53539 9.57541 5.48298 9.4534C5.43057 9.3314 5.40299 9.20018 5.40183 9.0674C5.40068 8.93462 5.42598 8.80294 5.47626 8.68005C5.52654 8.55715 5.60079 8.4455 5.69469 8.35161C5.78858 8.25771 5.90023 8.18346 6.02313 8.13318C6.14602 8.0829 6.2777 8.0576 6.41048 8.05875C6.54326 8.0599 6.67448 8.08749 6.79649 8.1399C6.91849 8.19231 7.02884 8.26849 7.12108 8.364L12.0711 13.314Z" fill="#0F172A"/>
</svg>
