<svg width="64" height="65" viewBox="0 0 64 65" fill="none" xmlns="http://www.w3.org/2000/svg">
<path d="M15.2151 4.50002C15.1321 4.49926 15.0503 4.51914 14.9769 4.55789C14.9036 4.59663 14.841 4.65302 14.7949 4.72196C14.7488 4.7909 14.7205 4.87024 14.7127 4.95282C14.7049 5.03541 14.7177 5.11864 14.7501 5.19502L15.0376 5.87377L20.1251 17.7363C20.1596 17.817 20.2148 17.8871 20.2851 17.9397C20.3554 17.9923 20.4383 18.0254 20.5255 18.0358C20.6126 18.0462 20.701 18.0335 20.7817 17.9989C20.8623 17.9643 20.9325 17.9091 20.9851 17.8388L30.375 5.30002C30.4308 5.22574 30.4647 5.1374 30.473 5.04492C30.4814 4.95244 30.4638 4.85947 30.4223 4.77641C30.3807 4.69336 30.3169 4.62351 30.2379 4.5747C30.1589 4.52588 30.0679 4.50002 29.975 4.50002H15.2151Z" fill="#FACC15"/>
<path d="M52.4913 7.75747L47.3313 19.8037C47.2989 19.8798 47.2858 19.9627 47.2932 20.045C47.3007 20.1274 47.3284 20.2066 47.374 20.2756C47.4196 20.3446 47.4816 20.4012 47.5544 20.4403C47.6272 20.4795 47.7086 20.5 47.7913 20.5H60.4163C60.5055 20.5 60.593 20.4762 60.6699 20.4311C60.7467 20.3859 60.8101 20.321 60.8535 20.2431C60.8968 20.1652 60.9185 20.0771 60.9164 19.988C60.9143 19.8989 60.8884 19.812 60.8413 19.7362L53.3751 7.69122C53.3268 7.61367 53.2583 7.55082 53.1768 7.50948C53.0954 7.46814 53.0042 7.44989 52.9131 7.45672C52.8221 7.46355 52.7346 7.49519 52.6602 7.54821C52.5859 7.60123 52.5275 7.6736 52.4913 7.75747Z" fill="#FACC15"/>
<path d="M10.625 7.69628L3.16128 19.7363C3.11426 19.812 3.08834 19.8989 3.0862 19.9881C3.08407 20.0772 3.1058 20.1653 3.14915 20.2432C3.1925 20.3211 3.25588 20.3859 3.33274 20.4311C3.4096 20.4763 3.49714 20.5001 3.58628 20.5H16.2113C16.294 20.4999 16.3754 20.4793 16.4483 20.44C16.5211 20.4007 16.583 20.3439 16.6284 20.2748C16.6739 20.2057 16.7015 20.1263 16.7088 20.0439C16.716 19.9615 16.7027 19.8785 16.67 19.8025L11.5 7.76253C11.4631 7.68074 11.4047 7.61042 11.3312 7.55894C11.2577 7.50745 11.1717 7.47671 11.0822 7.46993C10.9927 7.46316 10.903 7.4806 10.8226 7.52042C10.7421 7.56025 10.6739 7.62099 10.625 7.69628Z" fill="#FACC15"/>
<path d="M49.1588 4.50001H33.4776C33.4323 4.49971 33.3879 4.51209 33.3493 4.53572C33.3107 4.55936 33.2795 4.59333 33.2593 4.63377C33.239 4.67422 33.2304 4.71953 33.2345 4.76459C33.2387 4.80965 33.2553 4.85266 33.2826 4.88876L43.2726 18.1963C43.2981 18.2304 43.3321 18.2573 43.3713 18.2741C43.4105 18.2909 43.4535 18.2971 43.4958 18.292C43.5381 18.287 43.5784 18.2708 43.6125 18.2452C43.6466 18.2196 43.6734 18.1855 43.6901 18.1463L48.9501 5.87501L49.3751 4.83251C49.3901 4.79672 49.3961 4.75784 49.3928 4.71919C49.3895 4.68055 49.3768 4.64328 49.3559 4.6106C49.335 4.57791 49.3065 4.55078 49.2729 4.53151C49.2392 4.51225 49.2014 4.50144 49.1626 4.50001H49.1588Z" fill="#FACC15"/>
<path d="M29.875 56.5L18.6963 24.8138C18.6635 24.7217 18.6029 24.6422 18.523 24.586C18.4431 24.5298 18.3477 24.4998 18.25 24.5H3.21254C3.12543 24.4998 3.04001 24.524 2.96599 24.5699C2.89198 24.6159 2.83236 24.6817 2.79393 24.7598C2.75549 24.838 2.73979 24.9254 2.7486 25.0121C2.75742 25.0987 2.7904 25.1812 2.84379 25.25L29.8438 60.2263C29.9352 60.3446 30.0656 60.4268 30.2118 60.4581C30.358 60.4895 30.5106 60.468 30.6425 60.3975C30.7752 60.3277 30.8784 60.2126 30.9332 60.073C30.988 59.9335 30.9909 59.779 30.9413 59.6375L29.875 56.5Z" fill="#FACC15"/>
<path d="M60.7875 24.5H45.75C45.6529 24.5 45.5581 24.5302 45.4788 24.5864C45.3995 24.6426 45.3397 24.722 45.3075 24.8138L33.0325 59.5837C32.981 59.7297 32.9831 59.8893 33.0385 60.0338C33.094 60.1784 33.1991 60.2984 33.335 60.3725C33.471 60.4461 33.6287 60.4691 33.78 60.4373C33.9314 60.4055 34.0665 60.3209 34.1613 60.1987L61.1563 25.25C61.2097 25.1812 61.2427 25.0987 61.2515 25.0121C61.2603 24.9254 61.2446 24.838 61.2062 24.7598C61.1677 24.6817 61.1081 24.6159 61.0341 24.5699C60.9601 24.524 60.8746 24.4998 60.7875 24.5Z" fill="#FACC15"/>
<path d="M32.4001 10.3663L39.4001 19.7C39.4558 19.7743 39.4897 19.8626 39.498 19.9551C39.5064 20.0476 39.4888 20.1406 39.4473 20.2236C39.4058 20.3067 39.3419 20.3765 39.2629 20.4253C39.1839 20.4742 39.0929 20.5 39.0001 20.5H25.0001C24.9072 20.5 24.8162 20.4742 24.7372 20.4253C24.6582 20.3765 24.5944 20.3067 24.5529 20.2236C24.5113 20.1406 24.4937 20.0476 24.5021 19.9551C24.5104 19.8626 24.5444 19.7743 24.6001 19.7L31.6001 10.3663C31.6466 10.3042 31.707 10.2538 31.7765 10.219C31.8459 10.1843 31.9224 10.1663 32.0001 10.1663C32.0777 10.1663 32.1542 10.1843 32.2237 10.219C32.2931 10.2538 32.3535 10.3042 32.4001 10.3663ZM31.5251 49.155L23.0626 25.1663C23.036 25.0909 23.0279 25.0102 23.0389 24.9311C23.0499 24.8519 23.0798 24.7765 23.1259 24.7113C23.1721 24.646 23.2332 24.5928 23.3042 24.556C23.3751 24.5193 23.4539 24.5001 23.5338 24.5H40.4663C40.5462 24.5001 40.625 24.5193 40.696 24.556C40.7669 24.5928 40.8281 24.646 40.8742 24.7113C40.9204 24.7765 40.9502 24.8519 40.9612 24.9311C40.9723 25.0102 40.9641 25.0909 40.9376 25.1663L32.4713 49.155C32.4368 49.2524 32.3729 49.3367 32.2886 49.3963C32.2042 49.4559 32.1034 49.4879 32.0001 49.4879C31.8967 49.4879 31.796 49.4559 31.7116 49.3963C31.6272 49.3367 31.5633 49.2524 31.5288 49.155H31.5251Z" fill="#FB923C"/>
</svg>
