<svg width="15" height="14" viewBox="0 0 15 14" fill="none" xmlns="http://www.w3.org/2000/svg">
<path d="M11.2526 6.15692L7.30263 2.20692C7.12047 2.01832 7.01967 1.76571 7.02195 1.50352C7.02423 1.24132 7.1294 0.990508 7.31481 0.8051C7.50022 0.619692 7.75103 0.514523 8.01322 0.512245C8.27542 0.509966 8.52802 0.610761 8.71663 0.792919L14.3736 6.44992C14.4668 6.54257 14.5408 6.65273 14.5912 6.77407C14.6417 6.8954 14.6677 7.02551 14.6677 7.15692C14.6677 7.28833 14.6417 7.41844 14.5912 7.53977C14.5408 7.66111 14.4668 7.77127 14.3736 7.86392L8.71663 13.5209C8.62438 13.6164 8.51403 13.6926 8.39203 13.745C8.27003 13.7974 8.13881 13.825 8.00603 13.8262C7.87325 13.8273 7.74157 13.802 7.61867 13.7517C7.49578 13.7015 7.38412 13.6272 7.29023 13.5333C7.19634 13.4394 7.12209 13.3278 7.0718 13.2049C7.02152 13.082 6.99622 12.9503 6.99738 12.8175C6.99853 12.6847 7.02612 12.5535 7.07852 12.4315C7.13093 12.3095 7.20712 12.1992 7.30263 12.1069L11.2526 8.15692H1.66663C1.40141 8.15692 1.14706 8.05156 0.959519 7.86403C0.771983 7.67649 0.666626 7.42214 0.666626 7.15692C0.666626 6.8917 0.771983 6.63735 0.959519 6.44981C1.14706 6.26228 1.40141 6.15692 1.66663 6.15692H11.2526Z" fill="#E2E8F0"/>
</svg>
