<svg width="20" height="21" viewBox="0 0 20 21" fill="none" xmlns="http://www.w3.org/2000/svg">
<path d="M2.252 8.5C2.08416 9.1534 1.99949 9.82538 2 10.5C2 11.19 2.088 11.86 2.252 12.5H5.1C4.96518 11.1701 4.96518 9.82993 5.1 8.5H2.252ZM3.07 6.5H5.416C5.682 5.283 6.066 4.193 6.537 3.286C5.08518 3.98542 3.87722 5.10523 3.07 6.5ZM17.748 8.5H14.9C15.0348 9.82993 15.0348 11.1701 14.9 12.5H17.748C18.0847 11.1879 18.0847 9.81208 17.748 8.5ZM16.93 6.5C16.1228 5.10523 14.9148 3.98542 13.463 3.286C13.935 4.193 14.318 5.283 14.584 6.5H16.93ZM7.112 8.5C7.03708 9.16403 6.99968 9.83176 7 10.5C7 11.185 7.038 11.855 7.112 12.5H12.888C13.0386 11.1709 13.0386 9.82908 12.888 8.5H7.112ZM7.47 6.5H12.53C12.348 5.7483 12.0855 5.01841 11.747 4.323C11.119 3.068 10.447 2.5 10 2.5C9.552 2.5 8.881 3.068 8.253 4.323C7.938 4.955 7.673 5.69 7.47 6.5ZM3.07 14.5C3.87722 15.8948 5.08518 17.0146 6.537 17.714C6.065 16.807 5.682 15.717 5.416 14.5H3.07ZM16.93 14.5H14.584C14.318 15.717 13.934 16.807 13.463 17.714C14.9148 17.0146 16.1228 15.8948 16.93 14.5ZM7.47 14.5C7.673 15.31 7.938 16.045 8.253 16.677C8.881 17.932 9.553 18.5 10 18.5C10.448 18.5 11.119 17.932 11.747 16.677C12.062 16.045 12.327 15.31 12.53 14.5H7.47ZM10 20.5C4.477 20.5 0 16.023 0 10.5C0 4.977 4.477 0.5 10 0.5C15.523 0.5 20 4.977 20 10.5C20 16.023 15.523 20.5 10 20.5Z" fill="#E2E8F0"/>
</svg>
