<svg width="65" height="65" viewBox="0 0 65 65" fill="none" xmlns="http://www.w3.org/2000/svg">
<path d="M32.6667 6.5C18.3304 6.5 6.66667 18.1637 6.66667 32.5C6.66667 46.8363 18.3304 58.5 32.6667 58.5C47.0029 58.5 58.6667 46.8363 58.6667 32.5C58.6667 18.1637 47.0029 6.5 32.6667 6.5ZM42.0029 38.1025C40.9404 39.3975 37.0417 42.9125 32.6667 46.0413C28.2917 42.9163 24.3929 39.3975 23.3304 38.1025C20.8304 35.0563 19.6329 31.9275 19.6679 28.54C19.7067 24.6575 22.8204 21.4988 26.6092 21.4988C29.3592 21.4988 31.2717 23.05 32.3829 24.3438L32.6667 24.6875L32.9504 24.3438C34.0417 23.0363 35.9692 21.5 38.7242 21.5C42.5129 21.5 45.6267 24.6588 45.6654 28.5413C45.7004 31.9275 44.5017 35.0563 42.0029 38.1025Z" fill="#FACC15"/>
<path d="M26.6096 19.9988C29.3123 19.9989 31.3219 21.2294 32.6594 22.4714C34.0006 21.2145 36.0232 19.9999 38.7238 19.9998C43.3691 19.9998 47.1185 23.8556 47.1652 28.5261V28.8806C47.1187 32.5367 45.762 35.8841 43.1623 39.0535V39.0544C41.9734 40.5032 37.9477 44.1088 33.5392 47.2615L32.6672 47.8845L31.7951 47.2615C27.6606 44.3082 23.8634 40.9517 22.426 39.3503L22.1711 39.0544C19.4857 35.7824 18.1289 32.3199 18.1682 28.5242C18.2152 23.8539 21.9645 19.9988 26.6096 19.9988Z" fill="#FB923C" stroke="#0F172A" stroke-width="3"/>
</svg>
