<svg width="65" height="65" viewBox="0 0 65 65" fill="none" xmlns="http://www.w3.org/2000/svg">
<path d="M32.3334 46.4999C31.9852 46.4999 31.6431 46.409 31.3409 46.2362L13.8334 36.2299C13.6812 36.1421 13.5087 36.0959 13.333 36.0959C13.1573 36.096 12.9848 36.1424 12.8327 36.2303C12.6807 36.3182 12.5545 36.4447 12.4668 36.5969C12.3791 36.7491 12.3331 36.9218 12.3334 37.0974V46.4999C12.3331 46.8569 12.4283 47.2074 12.6092 47.5151C12.7901 47.8229 13.0501 48.0766 13.3621 48.2499L31.3621 58.2499C31.6592 58.415 31.9935 58.5016 32.3334 58.5016C32.6733 58.5016 33.0075 58.415 33.3046 58.2499L51.3046 48.2499C51.6167 48.0766 51.8766 47.8229 52.0575 47.5151C52.2384 47.2074 52.3337 46.8569 52.3334 46.4999V37.0974C52.3336 36.9218 52.2876 36.7491 52.2 36.5969C52.1123 36.4447 51.9861 36.3182 51.834 36.2303C51.682 36.1424 51.5094 36.096 51.3337 36.0959C51.1581 36.0959 50.9855 36.1421 50.8334 36.2299L33.3259 46.2362C33.0236 46.409 32.6815 46.4999 32.3334 46.4999Z" fill="#FACC15"/>
<path d="M62.3234 24.3124C62.3234 24.3124 62.3234 24.3024 62.3234 24.2986C62.291 23.9816 62.1834 23.6769 62.0095 23.4099C61.8355 23.1429 61.6003 22.9213 61.3234 22.7636L33.3234 6.76364C33.0211 6.59088 32.679 6.5 32.3309 6.5C31.9827 6.5 31.6406 6.59088 31.3384 6.76364L3.33836 22.7636C3.03235 22.9386 2.77801 23.1913 2.60112 23.4962C2.42422 23.8011 2.33105 24.1474 2.33105 24.4999C2.33105 24.8524 2.42422 25.1986 2.60112 25.5035C2.77801 25.8084 3.03235 26.0612 3.33836 26.2361L31.3384 42.2361C31.6406 42.4089 31.9827 42.4998 32.3309 42.4998C32.679 42.4998 33.0211 42.4089 33.3234 42.2361L57.9584 28.1599C57.9964 28.1379 58.0396 28.1264 58.0836 28.1264C58.1276 28.1264 58.1708 28.1381 58.2088 28.1601C58.2468 28.1822 58.2784 28.2139 58.3002 28.252C58.3221 28.2902 58.3335 28.3334 58.3334 28.3774V46.4436C58.3334 47.5199 59.1609 48.4436 60.2371 48.4974C60.5075 48.5104 60.7778 48.4684 61.0315 48.3739C61.2852 48.2794 61.5171 48.1344 61.7131 47.9476C61.9091 47.7608 62.0651 47.5362 62.1717 47.2874C62.2783 47.0385 62.3333 46.7706 62.3334 46.4999V24.4999C62.3332 24.4373 62.3299 24.3747 62.3234 24.3124Z" fill="#FB923C"/>
</svg>
