<svg width="21" height="23" viewBox="0 0 21 23" fill="none" xmlns="http://www.w3.org/2000/svg">
<path d="M21.0001 5.53122L18.5001 5.53122C18.3031 5.53122 18.108 5.57003 17.926 5.64541C17.7441 5.72078 17.5787 5.83125 17.4393 5.97052C17.3001 6.1099 17.1896 6.27527 17.1142 6.45718C17.0388 6.63919 17 6.83426 17 7.03124L17 12.5313C16.5 14.5308 16.4065 15.1247 15 16.5313C13.5935 17.9378 12.4892 19.0312 10.5 19.0313C9.51511 19.0313 8.90995 18.9082 8 18.5312C7.09004 18.1543 6.19645 17.2277 5.5 16.5313C4.80356 15.8348 4.87691 15.9412 4.5 15.0312C4.12309 14.1213 4.00003 13.5162 4.00004 12.5312L4.00004 7.03169C4.0001 6.83471 3.96134 6.63953 3.88599 6.45751C3.81063 6.2755 3.70015 6.11002 3.56086 5.97074C3.42155 5.83136 3.25617 5.72089 3.07415 5.64541C2.89214 5.57003 2.69705 5.53122 2.50002 5.53122L-7.43095e-07 5.53122L-4.15255e-07 12.0313C-3.55061e-07 13.4102 0.271592 14.7756 0.799269 16.0495C1.32695 17.3234 2.10038 18.4809 3.07539 19.4559C4.05042 20.4309 5.20793 21.2044 6.48186 21.732C7.75578 22.2597 9.12116 22.5313 10.5 22.5312C13.2848 22.5312 15.9555 21.425 17.9247 19.4559C19.8938 17.4868 21.0001 14.8161 21.0001 12.0313L21.0001 5.53122Z" fill="#EA580C"/>
<circle cx="4.5" cy="4.96875" r="4.5" fill="#0F172A"/>
</svg>
